<?xml version="1.0" encoding="UTF-8" standalone="no"?>
<!DOCTYPE svg PUBLIC "-//W3C//DTD SVG 1.1//EN" "http://www.w3.org/Graphics/SVG/1.1/DTD/svg11.dtd">
<svg xmlns="http://www.w3.org/2000/svg" version="1.1" viewBox="0 0 2420 420" width="2420.0pt" height="420.0pt">
<path d="M 0.00 0.00 L 2420.00 0.00 L 2420.00 420.00 L 0.00 420.00 L 0.00 0.00 Z" fill="#ffffff" />
<path d="M 98.00 42.00 C 174.59 42.01 251.45 41.97 328.00 42.02 C 342.65 42.20 356.59 48.79 366.03 59.98 C 373.83 69.15 378.03 80.97 378.00 93.00 C 378.00 171.67 378.00 250.34 378.00 329.01 C 377.93 335.35 376.94 341.61 374.61 347.52 C 369.50 360.96 358.46 371.86 344.97 376.82 C 338.88 379.14 332.50 380.01 326.00 380.01 C 247.44 379.97 168.50 380.04 89.97 379.98 C 75.35 379.80 61.39 373.19 51.97 362.02 C 44.18 352.86 39.97 341.03 40.00 329.01 C 40.00 250.34 40.00 171.66 40.00 92.99 C 40.03 84.36 42.07 75.85 46.27 68.29 C 53.66 54.72 67.43 44.95 82.74 42.66 C 87.84 41.83 92.86 41.99 98.00 42.00 Z" fill="#26aba3" />
<path d="M 1267.01 106.09 C 1279.08 106.09 1291.16 106.08 1303.24 106.10 C 1303.26 129.80 1303.24 153.49 1303.25 177.19 C 1307.45 174.17 1311.85 171.52 1316.72 169.72 C 1330.86 164.46 1346.58 163.31 1361.06 167.91 C 1373.66 171.81 1384.50 180.68 1390.58 192.41 C 1395.93 202.19 1397.70 212.96 1397.74 224.00 C 1397.77 253.66 1397.74 283.33 1397.75 312.99 C 1385.75 313.01 1373.76 313.01 1361.76 312.99 C 1361.73 284.33 1361.77 255.65 1361.74 226.99 C 1361.79 218.15 1359.20 209.52 1352.77 203.23 C 1346.97 197.63 1338.91 195.56 1331.00 196.03 C 1320.92 196.44 1311.73 200.12 1303.26 205.39 C 1303.23 241.26 1303.27 277.12 1303.24 312.99 C 1291.16 313.01 1279.08 313.00 1267.00 313.00 C 1267.00 244.03 1266.99 175.06 1267.01 106.09 Z" fill="#26aba3" />
<path d="M 1593.00 106.00 C 1605.25 106.00 1617.50 105.99 1629.75 106.01 C 1629.75 159.34 1629.76 212.67 1629.74 266.00 C 1629.78 270.45 1629.45 275.71 1631.09 279.91 C 1632.67 284.25 1637.52 286.83 1641.98 286.76 C 1646.38 286.84 1650.25 285.24 1654.01 283.12 C 1653.97 292.95 1654.05 302.78 1653.97 312.61 C 1641.73 317.97 1627.66 318.41 1615.09 313.92 C 1608.25 311.40 1602.36 306.65 1598.66 300.34 C 1594.33 293.20 1593.03 285.24 1593.01 277.00 C 1592.99 220.02 1593.00 162.99 1593.00 106.00 Z" fill="#26aba3" />
<path d="M 1670.00 106.00 C 1682.50 106.00 1695.00 105.98 1707.50 106.02 C 1707.49 118.49 1707.53 130.96 1707.48 143.43 C 1694.99 143.44 1682.50 143.44 1670.01 143.43 C 1669.99 130.96 1670.00 118.48 1670.00 106.00 Z" fill="#26aba3" />
<path d="M 2159.00 106.00 C 2171.50 106.00 2184.00 106.00 2196.50 106.00 C 2196.50 118.48 2196.51 130.96 2196.49 143.43 C 2183.99 143.45 2171.50 143.44 2159.00 143.44 C 2159.00 130.96 2159.00 118.48 2159.00 106.00 Z" fill="#434343" />
<path d="M 2227.00 106.00 C 2239.25 106.00 2251.51 105.99 2263.76 106.01 C 2263.75 159.34 2263.76 212.67 2263.75 266.00 C 2263.78 270.45 2263.45 275.71 2265.09 279.91 C 2266.67 284.26 2271.53 286.83 2275.99 286.76 C 2280.39 286.83 2284.26 285.24 2288.01 283.11 C 2287.97 292.94 2288.04 302.76 2287.98 312.59 C 2275.74 317.98 2261.65 318.41 2249.07 313.92 C 2241.99 311.30 2235.97 306.31 2232.29 299.70 C 2228.24 292.70 2227.04 284.99 2227.01 277.00 C 2226.99 220.00 2227.00 163.00 2227.00 106.00 Z" fill="#434343" />
<path d="M 2304.00 106.00 C 2316.25 106.00 2328.51 105.99 2340.76 106.01 C 2340.75 159.34 2340.76 212.67 2340.75 266.00 C 2340.78 270.45 2340.45 275.71 2342.09 279.91 C 2343.84 284.63 2349.19 287.13 2354.01 286.74 C 2358.04 286.61 2361.55 285.04 2365.02 283.12 C 2364.97 292.94 2365.04 302.77 2364.98 312.59 C 2352.93 317.89 2339.22 318.38 2326.78 314.17 C 2319.66 311.71 2313.48 306.87 2309.66 300.34 C 2305.33 293.20 2304.03 285.24 2304.01 277.00 C 2303.99 220.00 2304.00 163.00 2304.00 106.00 Z" fill="#434343" />
<path d="M 963.83 116.13 C 981.71 122.73 998.04 134.00 1010.23 148.70 C 1001.33 157.83 992.44 166.98 983.50 176.07 C 973.20 161.55 957.14 150.74 939.50 147.72 C 929.00 145.95 917.95 146.45 907.75 149.61 C 891.24 154.85 876.80 166.13 868.21 181.23 C 861.64 192.42 858.76 205.06 859.66 218.00 C 860.53 231.90 866.42 245.07 875.31 255.67 C 883.31 265.16 893.86 272.20 905.50 276.40 C 917.83 280.72 931.56 281.11 944.24 278.13 C 960.47 274.26 974.50 263.15 984.01 249.68 C 993.03 258.87 1002.00 268.11 1010.99 277.33 C 1002.55 287.54 992.36 296.24 980.89 302.87 C 948.15 322.31 904.53 321.44 871.96 302.05 C 846.53 287.38 827.84 261.86 822.31 232.95 C 818.59 212.97 820.55 191.52 828.92 172.91 C 836.58 155.56 848.95 140.38 864.51 129.52 C 892.99 109.46 931.06 104.57 963.83 116.13 Z" fill="#26aba3" />
<path d="M 127.60 110.69 C 147.83 130.67 168.07 150.72 188.24 170.75 C 191.61 174.01 195.02 177.16 198.09 180.71 C 192.56 186.21 187.08 191.76 181.53 197.24 C 176.91 193.04 172.62 188.49 168.09 184.20 C 159.58 192.68 151.06 201.13 142.52 209.58 C 137.71 204.27 132.87 198.97 128.10 193.61 C 132.99 188.55 138.06 183.66 142.98 178.64 C 137.96 173.80 132.81 169.09 127.80 164.23 C 123.07 169.12 118.43 174.08 113.80 179.06 C 108.59 174.10 103.57 168.93 98.49 163.84 C 106.26 155.15 115.05 147.37 122.97 138.81 C 119.08 134.87 115.34 130.79 111.38 126.93 C 116.87 121.60 122.04 115.93 127.60 110.69 Z" fill="#ffffff" />
<path d="M 289.19 110.97 C 291.08 111.73 292.59 113.58 294.08 114.92 C 298.16 118.71 302.31 122.43 306.37 126.24 C 302.25 130.56 298.01 134.75 293.95 139.11 C 302.57 147.63 311.07 156.27 319.57 164.92 C 314.57 169.99 309.53 174.99 304.62 180.14 C 298.96 175.02 293.77 169.43 288.21 164.21 C 283.22 168.84 278.44 173.66 273.82 178.65 C 278.83 183.68 284.19 188.32 289.21 193.34 C 284.19 198.66 278.93 203.76 273.79 208.95 C 265.85 200.69 257.69 192.62 249.86 184.26 C 228.02 205.62 206.17 226.98 184.23 248.22 C 186.21 252.53 187.68 256.79 188.45 261.48 C 190.37 270.00 188.74 279.30 185.26 287.20 C 178.37 302.16 162.49 311.95 146.01 311.16 C 128.79 311.02 112.79 299.08 107.39 282.79 C 104.82 276.11 104.89 269.06 105.61 262.03 C 107.06 254.20 110.62 246.82 115.78 240.76 C 121.72 233.98 129.93 229.31 138.79 227.65 C 148.47 225.29 158.78 227.46 167.65 231.64 C 177.16 222.51 186.15 212.79 195.78 203.79 C 203.84 195.85 211.66 187.66 219.85 179.85 C 242.82 157.06 266.16 133.60 289.19 110.97 Z" fill="#ffffff" />
<path d="M 448.01 113.34 C 462.58 113.34 477.16 113.34 491.73 113.34 C 510.26 146.34 528.72 179.39 547.25 212.40 C 566.61 179.39 585.90 146.34 605.27 113.34 C 619.35 113.35 633.42 113.32 647.50 113.35 C 647.50 179.90 647.51 246.45 647.50 313.00 C 634.83 313.00 622.17 313.00 609.50 313.00 C 609.49 268.59 609.51 224.18 609.49 179.77 C 588.49 215.12 567.46 250.45 546.52 285.83 C 526.35 250.14 506.19 214.45 486.01 178.76 C 485.99 223.51 486.01 268.25 486.00 313.00 C 473.33 313.00 460.67 313.00 448.00 313.00 C 448.00 246.44 447.99 179.89 448.01 113.34 Z" fill="#434343" />
<path d="M 1872.77 113.51 C 1886.43 113.49 1900.09 113.49 1913.76 113.51 C 1927.84 156.47 1941.89 199.46 1956.02 242.41 C 1968.16 199.43 1980.33 156.46 1992.51 113.50 C 2003.17 113.50 2013.83 113.50 2024.49 113.50 C 2036.71 156.42 2048.65 199.50 2061.02 242.37 C 2075.41 199.48 2089.47 156.44 2103.76 113.51 C 2117.33 113.50 2130.90 113.48 2144.47 113.52 C 2122.87 180.02 2101.13 246.48 2079.52 312.98 C 2068.18 313.02 2056.83 313.01 2045.48 312.98 C 2033.25 271.93 2021.02 230.88 2008.74 189.85 C 1996.41 230.90 1984.08 271.94 1971.76 312.99 C 1960.45 313.04 1949.14 312.93 1937.84 313.05 C 1916.33 247.57 1895.08 181.90 1873.68 116.36 C 1873.38 115.41 1873.07 114.46 1872.77 113.51 Z" fill="#434343" />
<path d="M 1199.02 126.51 C 1202.93 126.49 1206.84 126.49 1210.76 126.51 C 1210.72 140.50 1210.81 154.48 1210.71 168.46 C 1222.88 168.70 1235.06 168.48 1247.24 168.57 C 1247.26 179.38 1247.26 190.18 1247.24 200.99 C 1235.08 201.02 1222.92 200.98 1210.76 201.01 C 1210.75 223.00 1210.74 245.02 1210.76 267.01 C 1210.84 272.07 1211.62 276.96 1215.22 280.77 C 1218.60 284.26 1223.38 284.83 1228.00 284.75 C 1234.99 284.35 1241.81 282.61 1247.53 278.42 C 1247.47 288.96 1247.51 299.51 1247.50 310.05 C 1235.56 317.25 1220.48 318.10 1207.00 315.95 C 1197.67 314.40 1189.01 310.47 1183.49 302.51 C 1176.53 292.64 1175.08 278.74 1174.80 267.00 C 1174.68 245.01 1174.78 223.01 1174.75 201.01 C 1168.42 200.98 1162.09 201.02 1155.76 200.99 C 1155.74 195.60 1155.74 190.21 1155.76 184.82 C 1165.15 180.81 1173.74 175.20 1180.60 167.57 C 1191.16 155.97 1196.17 141.70 1199.02 126.51 Z" fill="#26aba3" />
<path d="M 1096.78 167.35 C 1110.26 170.62 1122.42 178.09 1130.45 189.53 C 1139.45 201.79 1141.15 216.21 1141.47 231.00 C 1141.54 258.41 1141.50 285.83 1141.49 313.24 C 1129.41 313.25 1117.34 313.26 1105.26 313.24 C 1105.25 310.68 1105.24 308.12 1105.24 305.56 C 1096.57 311.34 1087.37 314.65 1077.05 316.00 C 1066.56 317.44 1055.08 317.67 1044.97 314.11 C 1035.74 310.94 1027.65 304.79 1022.60 296.39 C 1016.77 286.93 1015.37 274.99 1017.37 264.20 C 1018.94 255.79 1023.49 248.49 1029.59 242.61 C 1038.67 233.97 1050.79 229.26 1062.95 226.98 C 1077.34 224.18 1090.92 225.21 1105.56 224.99 C 1105.39 217.52 1103.34 210.43 1097.84 205.15 C 1090.51 197.89 1078.80 196.35 1068.98 197.28 C 1058.62 198.31 1049.58 202.81 1041.98 209.82 C 1034.89 202.64 1027.80 195.46 1020.76 188.25 C 1040.64 169.29 1069.99 161.12 1096.78 167.35 Z" fill="#26aba3" />
<path d="M 1484.50 165.74 C 1507.04 162.67 1530.27 169.62 1547.31 184.69 C 1561.48 197.12 1570.40 215.26 1571.94 234.00 C 1573.19 248.69 1570.60 263.58 1563.61 276.62 C 1550.25 302.27 1521.72 317.93 1493.00 316.97 C 1465.10 316.59 1438.33 300.14 1425.95 275.04 C 1418.96 261.34 1416.69 245.70 1418.72 230.50 C 1420.70 215.96 1427.43 202.05 1437.09 191.06 C 1449.17 177.30 1466.34 168.11 1484.50 165.74 Z" fill="#26aba3" />
<path d="M 1830.52 167.62 C 1844.52 171.10 1857.10 178.43 1866.75 189.21 C 1858.68 197.46 1850.61 205.72 1842.51 213.94 C 1837.77 207.97 1831.50 202.48 1824.36 199.65 C 1813.38 195.63 1800.70 196.51 1790.69 202.70 C 1777.89 210.18 1769.83 224.25 1769.33 239.00 C 1768.52 255.31 1776.85 271.73 1791.26 279.73 C 1801.61 285.74 1814.67 286.41 1825.62 281.64 C 1832.87 278.38 1839.00 273.09 1843.51 266.56 C 1851.85 274.87 1860.20 283.18 1868.50 291.54 C 1845.90 317.35 1805.37 324.18 1774.92 309.07 C 1761.52 302.59 1750.17 292.10 1742.89 279.10 C 1729.55 255.85 1729.64 225.45 1743.41 202.41 C 1751.01 189.28 1762.55 178.70 1776.31 172.31 C 1793.05 164.30 1812.62 163.10 1830.52 167.62 Z" fill="#26aba3" />
<path d="M 1706.98 168.50 C 1707.02 216.66 1706.99 264.83 1707.00 313.00 C 1694.83 313.00 1682.66 313.02 1670.50 312.98 C 1670.53 264.87 1670.44 216.64 1670.54 168.54 C 1682.69 168.43 1694.84 168.53 1706.98 168.50 Z" fill="#26aba3" />
<path d="M 666.76 168.51 C 679.84 168.49 692.92 168.50 705.99 168.50 C 717.10 199.41 728.14 230.33 739.25 261.23 C 749.69 230.33 760.06 199.40 770.51 168.50 C 783.42 168.51 796.33 168.49 809.23 168.51 C 787.74 225.24 766.20 281.96 744.69 338.69 C 740.18 350.73 733.73 362.57 722.39 369.40 C 711.73 375.90 698.14 377.46 686.08 374.60 C 681.97 363.47 678.05 352.28 674.02 341.13 C 680.48 343.84 686.93 345.83 694.04 345.15 C 701.71 344.46 709.50 341.53 713.75 334.73 C 717.95 328.17 719.66 319.92 722.49 312.68 C 704.31 265.52 686.03 218.39 667.81 171.25 C 667.46 170.34 667.11 169.42 666.76 168.51 Z" fill="#434343" />
<path d="M 2159.51 168.51 C 2171.67 168.49 2183.83 168.50 2196.00 168.50 C 2196.00 216.67 2196.00 264.83 2196.00 313.00 C 2183.83 313.00 2171.67 313.00 2159.50 313.00 C 2159.50 264.83 2159.49 216.67 2159.51 168.51 Z" fill="#434343" />
<path d="M 1490.25 197.30 C 1498.20 196.37 1506.34 197.80 1513.40 201.59 C 1527.71 209.16 1536.38 224.95 1536.21 241.00 C 1536.40 257.81 1526.89 274.35 1511.44 281.44 C 1497.47 287.97 1480.37 285.40 1468.87 275.15 C 1453.74 261.98 1449.57 239.12 1458.18 221.16 C 1464.13 208.43 1476.14 198.93 1490.25 197.30 Z" fill="#ffffff" />
<path d="M 235.76 217.95 C 240.37 222.47 244.99 226.98 249.58 231.53 C 256.14 228.76 262.85 226.94 270.00 226.70 C 282.30 226.94 294.30 232.32 302.17 241.87 C 308.87 249.70 312.03 259.77 312.11 269.99 C 311.63 275.96 310.43 282.23 307.68 287.59 C 303.32 296.85 295.44 304.23 285.95 308.02 C 277.89 311.30 268.71 311.96 260.19 310.38 C 250.76 308.26 242.91 302.45 236.85 295.10 C 232.16 289.50 228.63 282.35 228.01 275.02 C 227.15 267.03 228.25 258.87 231.49 251.50 C 232.77 248.93 231.31 247.23 229.62 245.43 C 225.99 241.91 222.36 238.38 218.86 234.73 C 224.42 229.10 229.91 223.27 235.76 217.95 Z" fill="#ffffff" />
<path d="M 143.21 251.15 C 146.08 250.46 148.93 250.29 151.80 251.11 C 161.46 253.31 168.11 264.41 164.99 273.93 C 162.76 281.35 155.86 287.15 148.02 287.41 C 137.15 288.15 126.88 277.37 128.96 266.49 C 130.21 258.83 135.46 252.66 143.21 251.15 Z" fill="#26aba3" />
<path d="M 265.21 251.24 C 271.21 249.05 278.57 251.61 282.90 256.06 C 288.34 261.60 289.48 270.25 286.20 277.20 C 282.97 284.00 275.48 288.29 267.95 287.30 C 258.17 286.29 250.71 276.73 251.94 267.01 C 252.77 259.65 258.03 253.23 265.21 251.24 Z" fill="#26aba3" />
<path d="M 1105.24 250.97 C 1105.27 259.77 1105.23 268.58 1105.26 277.38 C 1095.01 283.34 1084.02 287.40 1071.99 287.00 C 1066.18 286.79 1060.48 284.88 1056.44 280.55 C 1051.29 275.18 1051.14 265.73 1056.27 260.29 C 1060.33 255.81 1066.40 253.53 1072.20 252.39 C 1082.79 250.41 1094.42 251.07 1105.24 250.97 Z" fill="#ffffff" />
</svg>